# xmcd
#
# Track frame offsets:
# 150
# 17668
# 35032
# 59342
#
# Disc length: 1114 seconds
#
# Revision: 1
# Processed by: cddbd v1.5.2PL0 Copyright (c) Steve Scherf et al.
# Submitted via: CedeCatalogueitor 2.6.0.6 http://personales.ya.com/cdcatalogueitor
#
DISCID=2e045804
DTITLE=Editors - Papillon
DYEAR=1900
DGENRE=
TTITLE0=Papillon
TTITLE1=Instrumental
TTITLE2=Papillon
TTITLE3=Instrumental
EXTD=
EXTT0=
EXTT1=
EXTT2=
EXTT3=
PLAYORDER=
